<svg xmlns="http://www.w3.org/2000/svg" xmlns:xlink="http://www.w3.org/1999/xlink" viewBox="0 0 691 98.45"><defs><style>.cls-1{fill:#09296a;}.cls-2{fill:#135bea;}.cls-2,.cls-6{stroke:#fff;}.cls-2,.cls-3,.cls-4,.cls-5,.cls-6,.cls-7,.cls-8{stroke-miterlimit:10;}.cls-2,.cls-3,.cls-4,.cls-5,.cls-6,.cls-7{opacity:0.6;}.cls-3,.cls-4,.cls-5,.cls-7,.cls-8{stroke:#d7ecff;}.cls-3{fill:url(#linear-gradient);}.cls-4{fill:url(#linear-gradient-2);}.cls-5{fill:url(#linear-gradient-3);}.cls-6{fill:#25c3de;}.cls-7{fill:url(#linear-gradient-4);}.cls-8{opacity:0.7;fill:url(#linear-gradient-5);}.cls-9{fill:#d9e021;}.cls-10{fill:#333;}.cls-11{fill:#666;}</style><linearGradient id="linear-gradient" x1="45.74" y1="65.72" x2="45.74" y2="32.23" gradientUnits="userSpaceOnUse"><stop offset="0" stop-color="#fff"></stop><stop offset="0.02" stop-color="#f0f5fe"></stop><stop offset="0.08" stop-color="#c2d5fa"></stop><stop offset="0.15" stop-color="#98b8f6"></stop><stop offset="0.22" stop-color="#749ff3"></stop><stop offset="0.3" stop-color="#568af0"></stop><stop offset="0.38" stop-color="#3d78ee"></stop><stop offset="0.48" stop-color="#2a6bec"></stop><stop offset="0.59" stop-color="#1d62eb"></stop><stop offset="0.73" stop-color="#155dea"></stop><stop offset="1" stop-color="#135bea"></stop></linearGradient><linearGradient id="linear-gradient-2" x1="46.41" y1="91.14" x2="46.41" y2="59.03" xlink:href="#linear-gradient"></linearGradient><linearGradient id="linear-gradient-3" x1="115.03" y1="65.27" x2="115.03" y2="32.23" xlink:href="#linear-gradient"></linearGradient><linearGradient id="linear-gradient-4" x1="117.77" y1="87.7" x2="117.77" y2="59.03" xlink:href="#linear-gradient"></linearGradient><linearGradient id="linear-gradient-5" x1="79.69" y1="89.64" x2="79.69" y2="23.47" xlink:href="#linear-gradient"></linearGradient></defs><g id="Layer_2" data-name="Layer 2"><g id="Logos"><path class="cls-1" d="M71.16,69.49c8-8.34,6.76-28.17-8.75-40.58-6.69-7.23-35.07-17.55-52.16-17.76a169.43,169.43,0,0,0,5.24,23.59C25.57,64.12,55,82.64,71.16,69.49Z"></path><path class="cls-1" d="M83.14,72.2c-5.3,18.89-33.56,18.12-51.65,10.45C20.18,78.75,5.84,64.34,0,57.92c-.6.77,22.84.17,30.79-7.2C51.45,37.06,86.4,51.38,83.14,72.2Z"></path><path class="cls-1" d="M90.19,69.49c-8-8.34-6.76-28.17,8.75-40.58,6.69-7.23,35.07-17.55,52.16-17.76a170.92,170.92,0,0,1-5.24,23.59C135.78,64.12,106.33,82.64,90.19,69.49Z"></path><path class="cls-1" d="M162.91,57.92c-17.63,20.94-45.7,37.29-72.59,26.42C65.88,71.57,86.84,47.75,107.11,46,128.3,40.83,137.88,61.48,162.91,57.92Z"></path><path class="cls-1" d="M80.94,84.34c-11.58,0-25-14.67-23.16-34.45C57.23,40.05,69.48,12.45,81.19,0A169,169,0,0,1,94.54,20.15C108.71,47.78,101.62,81.84,80.94,84.34Z"></path><path class="cls-2" d="M62.6,70.2c.07.4.14.79.22,1.17C62.75,71,62.67,70.6,62.6,70.2Z"></path><path class="cls-2" d="M62.89,71.7c0,.24.1.47.17.71C63,72.18,63,71.93,62.89,71.7Z"></path><path class="cls-2" d="M63.43,73.66c0,.18.09.36.12.53a18,18,0,0,1-.49-1.78A11.16,11.16,0,0,0,63.43,73.66Z"></path><path class="cls-3" d="M62.69,60c-7.4-2.54-17.39-.3-25.6,5.68C30.41,58.8,25.78,40,25,32.23c13.48.13,36.26,8.45,41.49,14.37A63.68,63.68,0,0,0,62.69,60Z"></path><path class="cls-4" d="M75.86,88.81a22.88,22.88,0,0,1-5.76,2.33,10.82,10.82,0,0,1-.57-5.62c-12.07,3-23.27,3.91-38.79-3.45A134.59,134.59,0,0,1,17,69c19.88,3,27.11-14.26,45.74-9-.77,5.54-.77,9.09.86,14.15h0C65.38,80.34,69.92,86.39,75.86,88.81Z"></path><path class="cls-5" d="M135.72,32.23c-.82,7.64-5.19,26-11.76,33a28.77,28.77,0,0,0-26.88-4.68A58.67,58.67,0,0,0,94.35,46.5l.37-.31C99.71,40.63,122.57,32.31,135.72,32.23Z"></path><path class="cls-6" d="M90.4,84.6a10.88,10.88,0,0,1-.21,6,20.78,20.78,0,0,1-4.53-2.09A14.78,14.78,0,0,0,90.4,84.6Z"></path><path class="cls-7" d="M145,69a121.57,121.57,0,0,1-15.8,14.56c-15.21,5.82-28.05,4.94-38.68.88C95.6,77.69,97,69,97.08,60.59,118,53.73,123.68,71.9,145,69Z"></path><path class="cls-8" d="M97.11,61.2c-.72,8.17-.86,20-8.9,23.4-2.11,6.66-12.08,6.17-16.52,1.77a24.39,24.39,0,0,1-7.61-10.62c-6.72-17,6.36-39.92,16.69-52.28C87.72,31.54,97.68,49.23,97.11,61.2Z"></path><path class="cls-9" d="M93.11,85.13C93,102.89,66,102.89,66,85.13,66,67.38,93,67.38,93.11,85.13Z"></path><path class="cls-10" d="M184,53.08v-51h3.62v51Z"></path><path class="cls-10" d="M206.44,53.08V1.76h1.73l33.47,38.51q1.81,2,3.34,4c1,1.34,1.56,2,1.62,2.09q-.16-1.89-.16-7.39V2.07h3.61V53.39h-1.73l-34.1-39.14L209.9,9q.15,1.57.15,7.39v36.7Z"></path><path class="cls-10" d="M268.91,53.08v-51h26.17V5.22H272.53V23.76h20.59v3.07H272.53V53.08Z"></path><path class="cls-10" d="M330.84,53.86a24.47,24.47,0,0,1-18.31-7.62,25.78,25.78,0,0,1-7.39-18.67,25.77,25.77,0,0,1,7.39-18.66,25.81,25.81,0,0,1,36.62,0,25.81,25.81,0,0,1,7.39,18.66,25.82,25.82,0,0,1-7.39,18.67A24.47,24.47,0,0,1,330.84,53.86Zm0-49.35a20.62,20.62,0,0,0-15.72,6.68,23.1,23.1,0,0,0-6.25,16.38,23,23,0,0,0,6.25,16.35,21.88,21.88,0,0,0,31.4,0,23,23,0,0,0,6.21-16.35,23.15,23.15,0,0,0-6.21-16.38A20.51,20.51,0,0,0,330.88,4.51Z"></path><path class="cls-10" d="M372.25,53.08V2.31q6.76-.56,11.48-.55,7.23,0,11.94,3.73t4.72,10.65a15,15,0,0,1-2.67,8.57,25.28,25.28,0,0,1-6.05,6.36Q401,43.49,403.22,45.93A16.15,16.15,0,0,0,413,51.19l-.08,2.44a18.87,18.87,0,0,1-7.15-1.3,17.19,17.19,0,0,1-5.46-4.13q-2.72-2.89-11.9-15.63-6.37,0-12.5-.4V53.08Zm14.15-23.5q3.06,0,6.6-4.09A14.06,14.06,0,0,0,396.54,16q0-5.42-3.7-8.25a15.34,15.34,0,0,0-9.58-2.83q-3.15,0-7.39.32v24Q381.53,29.58,386.4,29.58Z"></path><path class="cls-10" d="M443.69,50.4h-2.12L426.71,14.33q-.93-2.12-1.88-4.95s0,.34-.12.87-.17,1.21-.27,2.08-.21,1.58-.32,2.16l-5.89,38.59h-3.54L423,1.76h2.12L441,39.4c1.26,3.15,1.88,4.8,1.88,5A45.19,45.19,0,0,1,445,39.48L462.71,1.76h2.12l7.78,51.32h-3.77l-5.58-38.75a44.82,44.82,0,0,1-.55-5.11l-2.28,5.19Z"></path><path class="cls-10" d="M522.43,47.81q-5.17,6.06-15.79,6t-15.8-6q-5.19-6-5.19-16.74v-29h3.62v29q0,19.57,17.37,19.57T524,31.07v-29h3.62v29Q527.62,41.77,522.43,47.81Z"></path><path class="cls-10" d="M546,53.08v-51h3.61V49.78H573v3.3Z"></path><path class="cls-10" d="M586.25,35.39l-7.31,17.69h-3.7L596.62,1.76h2.12l21.53,51.32h-4l-7.39-17.69ZM597.48,7.57q-1.17,3.54-2.12,5.9L587.5,32.33h20.12l-7.78-18.78Q598,9.14,597.48,7.57Z"></path><path class="cls-10" d="M634.89,5.3H617.6V2.07h38.12V5.3H638.43V53.08h-3.54Z"></path><path class="cls-10" d="M666.4,53.08v-51h23.81V5.22H670V23.76h18.23v3.07H670v23h21v3.3Z"></path><path class="cls-11" d="M196.9,71.28V92.07h-1.83a.74.74,0,0,1-.77-.58L194,89.93a7.64,7.64,0,0,1-2,1.7,5.32,5.32,0,0,1-2.66.65,4.9,4.9,0,0,1-2.19-.49,4.65,4.65,0,0,1-1.69-1.41,6.83,6.83,0,0,1-1.09-2.3,11.5,11.5,0,0,1-.38-3.14,10,10,0,0,1,.42-3,7.4,7.4,0,0,1,1.23-2.37,5.81,5.81,0,0,1,2-1.57,5.66,5.66,0,0,1,2.56-.57,5.16,5.16,0,0,1,2.15.4A5.28,5.28,0,0,1,193.88,79V71.28Zm-3,10a3.53,3.53,0,0,0-1.39-1.13,4.12,4.12,0,0,0-1.65-.33,3.29,3.29,0,0,0-2.76,1.3,6.22,6.22,0,0,0-1,3.84,10.41,10.41,0,0,0,.22,2.26,4.36,4.36,0,0,0,.65,1.52,2.43,2.43,0,0,0,1,.86,3.27,3.27,0,0,0,1.36.27,3.84,3.84,0,0,0,2-.5,6,6,0,0,0,1.55-1.41Z"></path><path class="cls-11" d="M205,73.41a2.09,2.09,0,0,1-.16.78,2,2,0,0,1-.45.63,2,2,0,0,1-.65.44,1.92,1.92,0,0,1-.79.16,1.89,1.89,0,0,1-1.39-.6,2.13,2.13,0,0,1-.43-.63,1.91,1.91,0,0,1-.16-.78,1.85,1.85,0,0,1,.16-.78,2.06,2.06,0,0,1,.43-.64,1.89,1.89,0,0,1,1.39-.6,1.92,1.92,0,0,1,.79.16,2.17,2.17,0,0,1,1.1,1.08A2,2,0,0,1,205,73.41Zm-.51,4.33V92.07h-3V77.74Z"></path><path class="cls-11" d="M221.39,78.26v1.12c0,.38-.22.61-.67.69l-1.43.24a4.69,4.69,0,0,1,0,3.72,4.31,4.31,0,0,1-1.15,1.46,5.17,5.17,0,0,1-1.74.93,7.29,7.29,0,0,1-2.19.32,6.4,6.4,0,0,1-.88,0c-.28,0-.56-.08-.83-.13a2.15,2.15,0,0,0-.61.5.94.94,0,0,0-.19.55.73.73,0,0,0,.4.69,3.14,3.14,0,0,0,1.08.32,12.7,12.7,0,0,0,1.52.13c.57,0,1.15,0,1.74.1a16.55,16.55,0,0,1,1.74.23,5.31,5.31,0,0,1,1.53.53,3,3,0,0,1,1.07,1,2.91,2.91,0,0,1,.41,1.64,3.83,3.83,0,0,1-.46,1.81,5,5,0,0,1-1.34,1.58,7,7,0,0,1-2.15,1.1,9.1,9.1,0,0,1-2.88.41,10.93,10.93,0,0,1-2.78-.31,6.35,6.35,0,0,1-2-.83,3.5,3.5,0,0,1-1.18-1.22,2.85,2.85,0,0,1-.39-1.43,2.5,2.5,0,0,1,.64-1.73,4.33,4.33,0,0,1,1.73-1.12,2.39,2.39,0,0,1-.94-.77,2.14,2.14,0,0,1-.36-1.29,2.32,2.32,0,0,1,.46-1.32A3.63,3.63,0,0,1,210.9,86a4.54,4.54,0,0,1-1.68-1.57,4.1,4.1,0,0,1-.62-2.28A4.43,4.43,0,0,1,209,80.2a4.34,4.34,0,0,1,1.16-1.46,5.11,5.11,0,0,1,1.76-.93,7.2,7.2,0,0,1,2.23-.32,6.43,6.43,0,0,1,3.23.77Zm-3,14.51a1.08,1.08,0,0,0-.27-.77,1.93,1.93,0,0,0-.74-.45,5.08,5.08,0,0,0-1.08-.24c-.42,0-.85-.09-1.32-.11l-1.41-.07c-.49,0-.95-.07-1.4-.13a3.52,3.52,0,0,0-1.1.84,1.67,1.67,0,0,0-.43,1.14,1.52,1.52,0,0,0,.21.78,1.83,1.83,0,0,0,.68.64,3.81,3.81,0,0,0,1.16.42,8.49,8.49,0,0,0,1.71.15,5.78,5.78,0,0,0,3-.61A1.84,1.84,0,0,0,218.36,92.77Zm-4.2-8a2.82,2.82,0,0,0,2.11-.72,2.55,2.55,0,0,0,.7-1.87,2.49,2.49,0,0,0-.7-1.87,3.56,3.56,0,0,0-4.21,0,2.49,2.49,0,0,0-.71,1.87,2.91,2.91,0,0,0,.18,1,2.17,2.17,0,0,0,.54.82,2.38,2.38,0,0,0,.87.54A3.81,3.81,0,0,0,214.16,84.78Z"></path><path class="cls-11" d="M228.19,73.41a1.91,1.91,0,0,1-.16.78,2,2,0,0,1-.44.63,2.12,2.12,0,0,1-.66.44,1.89,1.89,0,0,1-.79.16,1.83,1.83,0,0,1-.77-.16,2.06,2.06,0,0,1-.62-.44,2.13,2.13,0,0,1-.43-.63,1.91,1.91,0,0,1-.16-.78,1.85,1.85,0,0,1,.16-.78,2.13,2.13,0,0,1,1.05-1.08,1.83,1.83,0,0,1,.77-.16,1.89,1.89,0,0,1,.79.16,2.12,2.12,0,0,1,.66.44,1.92,1.92,0,0,1,.44.64A1.85,1.85,0,0,1,228.19,73.41Zm-.5,4.33V92.07h-3V77.74Z"></path><path class="cls-11" d="M236.84,92.29a3.66,3.66,0,0,1-2.74-1,3.94,3.94,0,0,1-1-2.83V80.11h-1.58a.6.6,0,0,1-.43-.16.62.62,0,0,1-.19-.48V78.24l2.32-.33.66-4.15a.83.83,0,0,1,.24-.38.64.64,0,0,1,.45-.15h1.55v4.71h4v2.17h-4v8.13a1.67,1.67,0,0,0,.37,1.18,1.32,1.32,0,0,0,1,.41,1.8,1.8,0,0,0,.6-.09,3,3,0,0,0,.44-.2l.31-.19a.48.48,0,0,1,.26-.09.45.45,0,0,1,.41.28l.9,1.47a4.93,4.93,0,0,1-1.66.95A6,6,0,0,1,236.84,92.29Z"></path><path class="cls-11" d="M242.93,79.73a8.22,8.22,0,0,1,5.78-2.26,5.61,5.61,0,0,1,2.2.4A4.59,4.59,0,0,1,252.53,79a5.13,5.13,0,0,1,1,1.74,6.8,6.8,0,0,1,.35,2.22v9.11h-1.35a1.3,1.3,0,0,1-.66-.14,1,1,0,0,1-.38-.54l-.29-1.17a11.69,11.69,0,0,1-1.09.88,6.54,6.54,0,0,1-1.1.66,6,6,0,0,1-1.22.4,7.2,7.2,0,0,1-1.44.13,5.29,5.29,0,0,1-1.62-.24,3.42,3.42,0,0,1-2.17-1.92,4.18,4.18,0,0,1-.31-1.69,3.18,3.18,0,0,1,.44-1.61,4.07,4.07,0,0,1,1.46-1.42,9.62,9.62,0,0,1,2.68-1,19.8,19.8,0,0,1,4.11-.46V83a3.43,3.43,0,0,0-.66-2.3,2.41,2.41,0,0,0-1.94-.76,4.16,4.16,0,0,0-1.46.22,6.08,6.08,0,0,0-1,.47l-.77.47a1.29,1.29,0,0,1-.72.22.92.92,0,0,1-.53-.16,1.54,1.54,0,0,1-.36-.4Zm8,6.07a18.74,18.74,0,0,0-2.72.26,8,8,0,0,0-1.8.52,2.35,2.35,0,0,0-1,.75,1.65,1.65,0,0,0-.3,1,2.06,2.06,0,0,0,.16.86,1.57,1.57,0,0,0,.45.59,1.84,1.84,0,0,0,.67.34,3.25,3.25,0,0,0,.85.1,4.26,4.26,0,0,0,2-.44,6.14,6.14,0,0,0,1.65-1.28Z"></path><path class="cls-11" d="M261.23,71.28V92.07h-3V71.28Z"></path><path class="cls-11" d="M276.34,79.82a7.46,7.46,0,0,1,2-1.7,5.36,5.36,0,0,1,2.67-.65,4.82,4.82,0,0,1,2.19.49,4.7,4.7,0,0,1,1.68,1.41A6.86,6.86,0,0,1,286,81.66a11.53,11.53,0,0,1,.39,3.14,10,10,0,0,1-.43,3,7.4,7.4,0,0,1-1.23,2.37,5.57,5.57,0,0,1-4.51,2.15,5.07,5.07,0,0,1-2.14-.41,5.65,5.65,0,0,1-1.6-1.12v6.08h-3V77.74h1.83a.74.74,0,0,1,.79.57Zm.15,8.65a3.73,3.73,0,0,0,1.39,1.14,4.07,4.07,0,0,0,1.66.33,3.28,3.28,0,0,0,2.76-1.29,6.26,6.26,0,0,0,1-3.85,9.73,9.73,0,0,0-.22-2.25,4.5,4.5,0,0,0-.65-1.53,2.51,2.51,0,0,0-1-.85A3.35,3.35,0,0,0,280,79.9a3.81,3.81,0,0,0-2,.5,5.61,5.61,0,0,0-1.56,1.43Z"></path><path class="cls-11" d="M292.94,80.39a6.38,6.38,0,0,1,1.63-2.14,3.51,3.51,0,0,1,2.29-.78,3.45,3.45,0,0,1,.87.11,2.4,2.4,0,0,1,.73.31l-.21,2.28a.57.57,0,0,1-.17.33.53.53,0,0,1-.32.09,3.54,3.54,0,0,1-.6-.08,4.49,4.49,0,0,0-.83-.08,3.16,3.16,0,0,0-1.12.19,2.79,2.79,0,0,0-.87.53,3.69,3.69,0,0,0-.68.86,8.22,8.22,0,0,0-.55,1.15v8.91h-3V77.74h1.76a1,1,0,0,1,.66.17,1.12,1.12,0,0,1,.25.62Z"></path><path class="cls-11" d="M306.92,77.51a7.72,7.72,0,0,1,2.87.52A6.11,6.11,0,0,1,312,79.51a6.52,6.52,0,0,1,1.4,2.32,9.8,9.8,0,0,1,0,6.12,6.52,6.52,0,0,1-1.4,2.32,6,6,0,0,1-2.19,1.49,8.24,8.24,0,0,1-5.76,0,6.13,6.13,0,0,1-2.2-1.49,6.67,6.67,0,0,1-1.4-2.32,9.8,9.8,0,0,1,0-6.12,6.67,6.67,0,0,1,1.4-2.32A6.23,6.23,0,0,1,304,78,7.79,7.79,0,0,1,306.92,77.51Zm0,12.41a3.34,3.34,0,0,0,2.88-1.3,7.78,7.78,0,0,0,0-7.45,3.32,3.32,0,0,0-2.88-1.31A3.37,3.37,0,0,0,304,81.17a7.71,7.71,0,0,0,0,7.45A3.39,3.39,0,0,0,306.92,89.92Z"></path><path class="cls-11" d="M329.69,71.28V92.07h-1.83a.74.74,0,0,1-.77-.58l-.27-1.56a7.64,7.64,0,0,1-2,1.7,5.36,5.36,0,0,1-2.67.65,5,5,0,0,1-2.19-.49,4.7,4.7,0,0,1-1.68-1.41,6.83,6.83,0,0,1-1.09-2.3,11.48,11.48,0,0,1-.39-3.14,10,10,0,0,1,.43-3,7.4,7.4,0,0,1,1.23-2.37,5.64,5.64,0,0,1,4.51-2.14,5.16,5.16,0,0,1,2.15.4A5.28,5.28,0,0,1,326.67,79V71.28Zm-3,10a3.56,3.56,0,0,0-1.4-1.13,4,4,0,0,0-1.64-.33,3.32,3.32,0,0,0-2.77,1.3,6.29,6.29,0,0,0-1,3.84,9.82,9.82,0,0,0,.22,2.26,4.36,4.36,0,0,0,.65,1.52,2.46,2.46,0,0,0,1,.86,3.35,3.35,0,0,0,1.37.27,3.81,3.81,0,0,0,2-.5,5.84,5.84,0,0,0,1.56-1.41Z"></path><path class="cls-11" d="M346.2,77.74V92.07h-1.82a.75.75,0,0,1-.78-.58l-.22-1.33a11.13,11.13,0,0,1-.95.87,6.12,6.12,0,0,1-1.06.67,5.7,5.7,0,0,1-1.2.44,5.93,5.93,0,0,1-1.37.15,5.21,5.21,0,0,1-2.08-.39,4.33,4.33,0,0,1-1.51-1.11,5,5,0,0,1-.92-1.72,7.73,7.73,0,0,1-.31-2.22V77.74h3v9.11a3.43,3.43,0,0,0,.67,2.25,2.48,2.48,0,0,0,2,.8,4,4,0,0,0,1.86-.45,6.34,6.34,0,0,0,1.62-1.26V77.74Z"></path><path class="cls-11" d="M360.77,80.55a1.45,1.45,0,0,1-.27.28.59.59,0,0,1-.36.1.94.94,0,0,1-.5-.17c-.18-.11-.38-.24-.62-.37a5.38,5.38,0,0,0-.86-.38,4.15,4.15,0,0,0-1.27-.17,3.89,3.89,0,0,0-1.72.36,3.32,3.32,0,0,0-1.23,1,4.34,4.34,0,0,0-.75,1.59,8.42,8.42,0,0,0-.24,2.1,7.87,7.87,0,0,0,.26,2.15,4.75,4.75,0,0,0,.77,1.58,3.36,3.36,0,0,0,1.2,1,3.78,3.78,0,0,0,1.6.33,4.05,4.05,0,0,0,1.42-.21,4.28,4.28,0,0,0,.91-.46l.63-.46a.84.84,0,0,1,.55-.21.64.64,0,0,1,.56.28l.86,1.11a5.73,5.73,0,0,1-1.15,1.06,6.91,6.91,0,0,1-2.8,1.11,9.67,9.67,0,0,1-1.53.12,6.26,6.26,0,0,1-2.49-.5,5.92,5.92,0,0,1-2-1.45A6.89,6.89,0,0,1,350.35,88a9.12,9.12,0,0,1-.5-3.12,9.35,9.35,0,0,1,.45-3,6.58,6.58,0,0,1,1.32-2.33,5.88,5.88,0,0,1,2.14-1.54,7.32,7.32,0,0,1,2.95-.56,6.92,6.92,0,0,1,2.75.51,6.68,6.68,0,0,1,2.11,1.43Z"></path><path class="cls-11" d="M369.48,92.29a3.66,3.66,0,0,1-2.75-1,3.94,3.94,0,0,1-1-2.83V80.11H364.2a.63.63,0,0,1-.44-.16.62.62,0,0,1-.18-.48V78.24l2.32-.33.66-4.15a.74.74,0,0,1,.23-.38.68.68,0,0,1,.45-.15h1.55v4.71h4v2.17h-4v8.13a1.67,1.67,0,0,0,.38,1.18,1.28,1.28,0,0,0,1,.41,1.8,1.8,0,0,0,.6-.09,2.61,2.61,0,0,0,.44-.2,3.54,3.54,0,0,0,.31-.19.48.48,0,0,1,.26-.09.45.45,0,0,1,.41.28l.9,1.47a4.93,4.93,0,0,1-1.66.95A5.93,5.93,0,0,1,369.48,92.29Z"></path><path class="cls-11" d="M384.47,80.34a.79.79,0,0,1-.26.28.72.72,0,0,1-.35.08,1.12,1.12,0,0,1-.52-.15l-.66-.33a5.07,5.07,0,0,0-.89-.32,4.28,4.28,0,0,0-1.2-.15,3.56,3.56,0,0,0-1,.13,2.41,2.41,0,0,0-.77.38,1.81,1.81,0,0,0-.49.58,1.55,1.55,0,0,0-.17.71,1.24,1.24,0,0,0,.31.84,2.73,2.73,0,0,0,.82.58,7.92,7.92,0,0,0,1.15.44l1.32.42c.45.15.89.33,1.32.52a5,5,0,0,1,1.15.73,3.24,3.24,0,0,1,.82,1,3.31,3.31,0,0,1,.31,1.48,4.8,4.8,0,0,1-.37,1.87A4.23,4.23,0,0,1,383.9,91a4.87,4.87,0,0,1-1.75,1,8.22,8.22,0,0,1-3.83.22,8,8,0,0,1-1.32-.37,7,7,0,0,1-1.17-.55,6,6,0,0,1-1-.71l.7-1.15a1,1,0,0,1,.32-.33.86.86,0,0,1,.47-.12,1.08,1.08,0,0,1,.58.19c.19.13.42.27.68.42a5.07,5.07,0,0,0,.93.41,4.13,4.13,0,0,0,1.36.19,3.72,3.72,0,0,0,1.17-.16,2.4,2.4,0,0,0,.81-.44,1.72,1.72,0,0,0,.48-.64,2,2,0,0,0,.16-.77,1.36,1.36,0,0,0-.31-.9,2.77,2.77,0,0,0-.82-.6,7.52,7.52,0,0,0-1.17-.45l-1.33-.42a13.55,13.55,0,0,1-1.33-.52,4.81,4.81,0,0,1-1.16-.75,3.49,3.49,0,0,1-.82-1.11,3.68,3.68,0,0,1-.31-1.6,4,4,0,0,1,.34-1.63,4.13,4.13,0,0,1,1-1.36,5.07,5.07,0,0,1,1.65-.93,6.73,6.73,0,0,1,2.25-.35,7.12,7.12,0,0,1,2.63.47,5.89,5.89,0,0,1,2,1.26Z"></path><path class="cls-11" d="M397.27,70.42h2.34V96.93h-2.34Z"></path><path class="cls-11" d="M416,73.41a2.09,2.09,0,0,1-.16.78,2,2,0,0,1-.45.63,2,2,0,0,1-.65.44,1.92,1.92,0,0,1-.79.16,1.83,1.83,0,0,1-.77-.16,2,2,0,0,1-.62-.44,2.13,2.13,0,0,1-.43-.63,1.91,1.91,0,0,1-.16-.78,1.85,1.85,0,0,1,.16-.78,2.06,2.06,0,0,1,.43-.64,2,2,0,0,1,.62-.44,1.83,1.83,0,0,1,.77-.16,1.92,1.92,0,0,1,.79.16,2.17,2.17,0,0,1,1.1,1.08A2,2,0,0,1,416,73.41Zm-.51,4.33V92.07h-3V77.74Z"></path><path class="cls-11" d="M422.92,79.63a11,11,0,0,1,1-.86,7,7,0,0,1,1.06-.67,6.12,6.12,0,0,1,1.2-.43,5.92,5.92,0,0,1,1.37-.16,5,5,0,0,1,2.08.4,4.14,4.14,0,0,1,1.5,1.11,4.73,4.73,0,0,1,.92,1.72,7.66,7.66,0,0,1,.31,2.21v9.12h-3V83a3.45,3.45,0,0,0-.66-2.25,2.53,2.53,0,0,0-2-.8,3.9,3.9,0,0,0-1.87.47,6.13,6.13,0,0,0-1.62,1.26V92.07h-3V77.74h1.82a.74.74,0,0,1,.79.57Z"></path><path class="cls-11" d="M439.44,79.63a11,11,0,0,1,1-.86,6.52,6.52,0,0,1,1.06-.67,5.75,5.75,0,0,1,2.57-.59,4.93,4.93,0,0,1,2.07.4A4.09,4.09,0,0,1,447.61,79a4.89,4.89,0,0,1,.92,1.72,7.66,7.66,0,0,1,.31,2.21v9.12h-3V83a3.39,3.39,0,0,0-.67-2.25,2.49,2.49,0,0,0-2-.8,3.87,3.87,0,0,0-1.87.47,6.13,6.13,0,0,0-1.62,1.26V92.07h-3V77.74h1.82a.74.74,0,0,1,.79.57Z"></path><path class="cls-11" d="M459.33,77.51a7.72,7.72,0,0,1,2.87.52,6.11,6.11,0,0,1,2.19,1.48,6.67,6.67,0,0,1,1.4,2.32,9.8,9.8,0,0,1,0,6.12,6.67,6.67,0,0,1-1.4,2.32,6,6,0,0,1-2.19,1.49,8.24,8.24,0,0,1-5.76,0,6.13,6.13,0,0,1-2.2-1.49,6.52,6.52,0,0,1-1.4-2.32,9.8,9.8,0,0,1,0-6.12,6.52,6.52,0,0,1,1.4-2.32,6.23,6.23,0,0,1,2.2-1.48A7.79,7.79,0,0,1,459.33,77.51Zm0,12.41a3.34,3.34,0,0,0,2.88-1.3,7.78,7.78,0,0,0,0-7.45,3.32,3.32,0,0,0-2.88-1.31,3.37,3.37,0,0,0-2.92,1.31,7.71,7.71,0,0,0,0,7.45A3.39,3.39,0,0,0,459.33,89.92Z"></path><path class="cls-11" d="M482.12,77.74l-5.76,14.33h-2.72l-5.76-14.33h2.49a1,1,0,0,1,.58.17.87.87,0,0,1,.3.42l3.18,8.34c.13.39.24.78.35,1.17s.19.77.26,1.16c.08-.39.17-.78.28-1.16s.23-.77.36-1.17l3.23-8.34a.8.8,0,0,1,.31-.42.89.89,0,0,1,.54-.17Z"></path><path class="cls-11" d="M484.27,79.73a8.24,8.24,0,0,1,5.79-2.26,5.64,5.64,0,0,1,2.2.4A4.46,4.46,0,0,1,493.87,79a5,5,0,0,1,1,1.74,6.8,6.8,0,0,1,.34,2.22v9.11h-1.34a1.3,1.3,0,0,1-.66-.14,1,1,0,0,1-.38-.54l-.3-1.17a10.44,10.44,0,0,1-1.08.88,7,7,0,0,1-1.1.66,6,6,0,0,1-1.22.4,7.2,7.2,0,0,1-1.44.13,5.35,5.35,0,0,1-1.63-.24,3.66,3.66,0,0,1-1.3-.72,3.61,3.61,0,0,1-.86-1.2,4.18,4.18,0,0,1-.32-1.69,3.19,3.19,0,0,1,.45-1.61,4,4,0,0,1,1.46-1.42,9.62,9.62,0,0,1,2.68-1,19.8,19.8,0,0,1,4.11-.46V83a3.43,3.43,0,0,0-.66-2.3,2.42,2.42,0,0,0-1.94-.76,4.12,4.12,0,0,0-1.46.22,6.21,6.21,0,0,0-1,.47l-.77.47a1.25,1.25,0,0,1-.72.22.89.89,0,0,1-.52-.16,1.25,1.25,0,0,1-.36-.4Zm8,6.07a18.89,18.89,0,0,0-2.73.26,7.76,7.76,0,0,0-1.79.52,2.35,2.35,0,0,0-1,.75,1.6,1.6,0,0,0-.31,1,2.24,2.24,0,0,0,.16.86,1.57,1.57,0,0,0,.45.59,2,2,0,0,0,.68.34,3.25,3.25,0,0,0,.85.1,4.28,4.28,0,0,0,2-.44,6.47,6.47,0,0,0,1.65-1.28Z"></path><path class="cls-11" d="M513.21,92.07h-3v-12h-7v8.13a1.63,1.63,0,0,0,.38,1.18,1.28,1.28,0,0,0,1,.41,1.8,1.8,0,0,0,.6-.09,3,3,0,0,0,.44-.2l.31-.19a.48.48,0,0,1,.26-.09.45.45,0,0,1,.41.28l.9,1.47a4.93,4.93,0,0,1-1.66.95,6,6,0,0,1-2,.33,3.66,3.66,0,0,1-2.75-1,3.94,3.94,0,0,1-1-2.83V80.11h-1.58a.59.59,0,0,1-.61-.64V78.24l2.31-.33.66-4.15a.83.83,0,0,1,.24-.38.66.66,0,0,1,.45-.15h1.55v4.71h10Zm.62-18.73a2,2,0,0,1-.61,1.4,2,2,0,0,1-.65.43,1.92,1.92,0,0,1-.78.17,1.84,1.84,0,0,1-.77-.17,2.08,2.08,0,0,1-.63-.43,2,2,0,0,1-.43-.63,1.84,1.84,0,0,1-.17-.77,1.93,1.93,0,0,1,.17-.79,2,2,0,0,1,.43-.65,2.27,2.27,0,0,1,.63-.43,1.83,1.83,0,0,1,.77-.16,1.91,1.91,0,0,1,.78.16,2.23,2.23,0,0,1,.65.43,2.09,2.09,0,0,1,.61,1.44Z"></path><path class="cls-11" d="M524,77.51a7.76,7.76,0,0,1,2.87.52A6.11,6.11,0,0,1,529,79.51a6.67,6.67,0,0,1,1.4,2.32,9.8,9.8,0,0,1,0,6.12,6.67,6.67,0,0,1-1.4,2.32,6,6,0,0,1-2.19,1.49,8.24,8.24,0,0,1-5.76,0,6.13,6.13,0,0,1-2.2-1.49,6.38,6.38,0,0,1-1.4-2.32,9.8,9.8,0,0,1,0-6.12,6.38,6.38,0,0,1,1.4-2.32,6.23,6.23,0,0,1,2.2-1.48A7.79,7.79,0,0,1,524,77.51Zm0,12.41a3.34,3.34,0,0,0,2.88-1.3,7.78,7.78,0,0,0,0-7.45A3.32,3.32,0,0,0,524,79.86,3.41,3.41,0,0,0,521,81.17a7.78,7.78,0,0,0,0,7.45A3.43,3.43,0,0,0,524,89.92Z"></path><path class="cls-11" d="M537.39,79.63a9.78,9.78,0,0,1,1-.86,6.12,6.12,0,0,1,1.06-.67,5.8,5.8,0,0,1,1.19-.43,5.94,5.94,0,0,1,1.38-.16,5,5,0,0,1,2.07.4,4.14,4.14,0,0,1,1.5,1.11,4.59,4.59,0,0,1,.92,1.72,7.33,7.33,0,0,1,.31,2.21v9.12h-3V83a3.45,3.45,0,0,0-.67-2.25,2.51,2.51,0,0,0-2-.8,3.91,3.91,0,0,0-1.88.47,6.46,6.46,0,0,0-1.62,1.26V92.07h-3V77.74h1.83a.73.73,0,0,1,.78.57Z"></path><path class="cls-11" d="M569,80.55a1.83,1.83,0,0,1-.27.28.62.62,0,0,1-.36.1.94.94,0,0,1-.5-.17c-.18-.11-.38-.24-.62-.37a5.38,5.38,0,0,0-.86-.38,4.15,4.15,0,0,0-1.27-.17,3.89,3.89,0,0,0-1.72.36,3.43,3.43,0,0,0-1.24,1,4.49,4.49,0,0,0-.74,1.59,8.4,8.4,0,0,0-.25,2.1,7.85,7.85,0,0,0,.27,2.15,4.57,4.57,0,0,0,.77,1.58,3.36,3.36,0,0,0,1.2,1,3.78,3.78,0,0,0,1.6.33,4.05,4.05,0,0,0,1.42-.21,4.28,4.28,0,0,0,.91-.46l.63-.46a.84.84,0,0,1,.55-.21.64.64,0,0,1,.56.28l.86,1.11a5.73,5.73,0,0,1-1.15,1.06,6.38,6.38,0,0,1-1.34.71,6.57,6.57,0,0,1-1.46.4,9.67,9.67,0,0,1-1.53.12,6.26,6.26,0,0,1-2.49-.5,5.92,5.92,0,0,1-2-1.45A6.73,6.73,0,0,1,558.55,88a9.12,9.12,0,0,1-.5-3.12,9.35,9.35,0,0,1,.45-3,6.58,6.58,0,0,1,1.32-2.33A5.88,5.88,0,0,1,562,78.07a7.32,7.32,0,0,1,2.95-.56,6.87,6.87,0,0,1,2.74.51,6.61,6.61,0,0,1,2.12,1.43Z"></path><path class="cls-11" d="M579,77.51a7.76,7.76,0,0,1,2.87.52,6.11,6.11,0,0,1,2.19,1.48,6.67,6.67,0,0,1,1.4,2.32,9.8,9.8,0,0,1,0,6.12,6.67,6.67,0,0,1-1.4,2.32,6,6,0,0,1-2.19,1.49,8.24,8.24,0,0,1-5.76,0,6.13,6.13,0,0,1-2.2-1.49,6.38,6.38,0,0,1-1.4-2.32,9.8,9.8,0,0,1,0-6.12,6.38,6.38,0,0,1,1.4-2.32,6.23,6.23,0,0,1,2.2-1.48A7.79,7.79,0,0,1,579,77.51Zm0,12.41a3.34,3.34,0,0,0,2.88-1.3,7.78,7.78,0,0,0,0-7.45A3.32,3.32,0,0,0,579,79.86a3.41,3.41,0,0,0-2.93,1.31,7.78,7.78,0,0,0,0,7.45A3.43,3.43,0,0,0,579,89.92Z"></path><path class="cls-11" d="M592.45,79.63a11,11,0,0,1,1-.86,6.61,6.61,0,0,1,1.07-.67,5.8,5.8,0,0,1,1.19-.43,5.94,5.94,0,0,1,1.38-.16,5,5,0,0,1,2.07.4,4.14,4.14,0,0,1,1.5,1.11,4.59,4.59,0,0,1,.92,1.72,7.33,7.33,0,0,1,.31,2.21v9.12h-3V83a3.45,3.45,0,0,0-.66-2.25,2.51,2.51,0,0,0-2-.8,3.91,3.91,0,0,0-1.88.47,6.46,6.46,0,0,0-1.62,1.26V92.07h-3V77.74h1.83a.73.73,0,0,1,.78.57Z"></path><path class="cls-11" d="M614.7,80.34a.77.77,0,0,1-.25.28.75.75,0,0,1-.35.08,1.09,1.09,0,0,1-.52-.15l-.66-.33a5.39,5.39,0,0,0-.89-.32,4.4,4.4,0,0,0-1.21-.15,3.53,3.53,0,0,0-1,.13,2.37,2.37,0,0,0-.78.38,1.66,1.66,0,0,0-.48.58,1.55,1.55,0,0,0-.17.71,1.2,1.2,0,0,0,.31.84,2.8,2.8,0,0,0,.81.58,8.55,8.55,0,0,0,1.16.44l1.32.42c.45.15.89.33,1.32.52a5,5,0,0,1,1.15.73,3.08,3.08,0,0,1,.81,1,3.18,3.18,0,0,1,.31,1.48,4.79,4.79,0,0,1-.36,1.87A4.36,4.36,0,0,1,614.14,91a4.87,4.87,0,0,1-1.75,1,7.61,7.61,0,0,1-2.39.35,7.7,7.7,0,0,1-2.76-.5,7,7,0,0,1-1.17-.55,6,6,0,0,1-1-.71l.7-1.15a.92.92,0,0,1,.32-.33.84.84,0,0,1,.47-.12,1.11,1.11,0,0,1,.58.19c.19.13.42.27.67.42a4.9,4.9,0,0,0,.94.41,4.09,4.09,0,0,0,1.36.19,3.72,3.72,0,0,0,1.17-.16,2.5,2.5,0,0,0,.81-.44,1.72,1.72,0,0,0,.48-.64,2,2,0,0,0,.15-.77,1.31,1.31,0,0,0-.31-.9,2.64,2.64,0,0,0-.82-.6,7.39,7.39,0,0,0-1.16-.45l-1.33-.42a13.55,13.55,0,0,1-1.33-.52,4.81,4.81,0,0,1-1.16-.75,3.51,3.51,0,0,1-.83-1.11,3.84,3.84,0,0,1-.3-1.6,4,4,0,0,1,.34-1.63,4.13,4.13,0,0,1,1-1.36,5,5,0,0,1,1.64-.93,6.83,6.83,0,0,1,2.26-.35,7.07,7.07,0,0,1,2.62.47,5.84,5.84,0,0,1,2,1.26Z"></path><path class="cls-11" d="M631.25,77.74V92.07h-1.83a.74.74,0,0,1-.77-.58l-.23-1.33a11,11,0,0,1-.94.87,7,7,0,0,1-1.06.67,6.14,6.14,0,0,1-1.2.44,6.06,6.06,0,0,1-1.37.15,5.18,5.18,0,0,1-2.08-.39,4.24,4.24,0,0,1-1.51-1.11,4.66,4.66,0,0,1-.92-1.72,7.4,7.4,0,0,1-.31-2.22V77.74h3v9.11a3.43,3.43,0,0,0,.66,2.25,2.49,2.49,0,0,0,2,.8,4,4,0,0,0,1.87-.45,6.7,6.7,0,0,0,1.62-1.26V77.74Z"></path><path class="cls-11" d="M638.76,71.28V92.07h-3V71.28Z"></path><path class="cls-11" d="M657.16,92.07h-3v-12h-7v8.13a1.67,1.67,0,0,0,.38,1.18,1.28,1.28,0,0,0,1,.41,1.82,1.82,0,0,0,.61-.09,2.89,2.89,0,0,0,.43-.2l.32-.19a.45.45,0,0,1,.26-.09.44.44,0,0,1,.4.28l.9,1.47a4.89,4.89,0,0,1-1.65.95,6,6,0,0,1-2,.33,3.68,3.68,0,0,1-2.75-1,3.94,3.94,0,0,1-1-2.83V80.11h-1.57a.63.63,0,0,1-.44-.16.62.62,0,0,1-.18-.48V78.24l2.32-.33.66-4.15a.75.75,0,0,1,.24-.38.64.64,0,0,1,.45-.15h1.54v4.71h10Zm.62-18.73a1.83,1.83,0,0,1-.16.77,2.16,2.16,0,0,1-.44.63,2.09,2.09,0,0,1-.66.43,1.89,1.89,0,0,1-.78.17,1.8,1.8,0,0,1-.76-.17,2,2,0,0,1-.63-.43,2,2,0,0,1-.44-.63,1.83,1.83,0,0,1-.16-.77,1.92,1.92,0,0,1,.16-.79,2.07,2.07,0,0,1,.44-.65,2.13,2.13,0,0,1,.63-.43,1.79,1.79,0,0,1,.76-.16,1.88,1.88,0,0,1,.78.16,2,2,0,0,1,1.1,1.08A1.92,1.92,0,0,1,657.78,73.34Z"></path><path class="cls-11" d="M664.55,79.63a11,11,0,0,1,1-.86,6.52,6.52,0,0,1,1.06-.67,6.12,6.12,0,0,1,1.2-.43,5.92,5.92,0,0,1,1.37-.16,4.93,4.93,0,0,1,2.07.4A4.09,4.09,0,0,1,672.72,79a4.89,4.89,0,0,1,.92,1.72A7.66,7.66,0,0,1,674,83v9.12h-3V83a3.39,3.39,0,0,0-.67-2.25,2.49,2.49,0,0,0-2-.8,3.87,3.87,0,0,0-1.87.47,6.13,6.13,0,0,0-1.62,1.26V92.07h-3V77.74h1.82a.74.74,0,0,1,.79.57Z"></path><path class="cls-11" d="M690.59,78.26v1.12c0,.38-.22.61-.67.69l-1.44.24a4.58,4.58,0,0,1-.05,3.72,4.17,4.17,0,0,1-1.14,1.46,5.37,5.37,0,0,1-1.74.93,7.38,7.38,0,0,1-2.19.32,6.31,6.31,0,0,1-.88,0c-.29,0-.57-.08-.84-.13a2.09,2.09,0,0,0-.6.5,1,1,0,0,0-.2.55.74.74,0,0,0,.41.69,3.08,3.08,0,0,0,1.07.32,13.07,13.07,0,0,0,1.53.13c.57,0,1.15,0,1.74.1a16.55,16.55,0,0,1,1.74.23,5.42,5.42,0,0,1,1.53.53,3,3,0,0,1,1.07,1,3,3,0,0,1,.41,1.64,3.85,3.85,0,0,1-.47,1.81,4.74,4.74,0,0,1-1.34,1.58,7,7,0,0,1-2.14,1.1,9.1,9.1,0,0,1-2.88.41,11,11,0,0,1-2.79-.31,6.45,6.45,0,0,1-2-.83,3.59,3.59,0,0,1-1.18-1.22,2.94,2.94,0,0,1-.38-1.43,2.5,2.5,0,0,1,.64-1.73,4.26,4.26,0,0,1,1.73-1.12,2.49,2.49,0,0,1-.95-.77,2.14,2.14,0,0,1-.36-1.29,2.34,2.34,0,0,1,.47-1.32A3.63,3.63,0,0,1,680.1,86a4.57,4.57,0,0,1-1.69-1.57,4.19,4.19,0,0,1-.62-2.28,4.3,4.3,0,0,1,.42-1.92,4.11,4.11,0,0,1,1.16-1.46,5,5,0,0,1,1.76-.93,7.2,7.2,0,0,1,2.23-.32,6.46,6.46,0,0,1,3.23.77Zm-3,14.51a1,1,0,0,0-.28-.77,1.89,1.89,0,0,0-.73-.45,5,5,0,0,0-1.09-.24c-.41,0-.85-.09-1.31-.11l-1.42-.07c-.48,0-1-.07-1.4-.13a3.77,3.77,0,0,0-1.1.84A1.72,1.72,0,0,0,679.8,93a1.53,1.53,0,0,0,.22.78,1.83,1.83,0,0,0,.68.64,3.81,3.81,0,0,0,1.16.42,8.35,8.35,0,0,0,1.71.15,5.81,5.81,0,0,0,3-.61A1.86,1.86,0,0,0,687.56,92.77Zm-4.2-8a2.8,2.8,0,0,0,2.1-.72,2.56,2.56,0,0,0,.71-1.87,2.49,2.49,0,0,0-.71-1.87,3.54,3.54,0,0,0-4.2,0,2.46,2.46,0,0,0-.71,1.87,2.91,2.91,0,0,0,.18,1,2.28,2.28,0,0,0,.53.82,2.51,2.51,0,0,0,.88.54A3.76,3.76,0,0,0,683.36,84.78Z"></path></g></g></svg>