<svg width="726" height="1043" viewBox="0 0 726 1043" fill="none" xmlns="http://www.w3.org/2000/svg">
<circle cx="585.348" cy="456.341" r="330.531" transform="rotate(-105 585.348 456.341)" stroke="#0E5F7C" stroke-width="3"/>
<path d="M296.355 349.507C236.686 508.987 317.599 686.643 477.079 746.312M693.161 168.783C761.26 194.261 815.033 241.253 849.653 299.156C896.109 376.857 908.075 474.206 873.885 565.588C843.662 646.367 783.168 706.989 710.099 739.396" stroke="#0E5F7C"/>
<circle cx="585.348" cy="456.341" r="283.098" transform="rotate(-105 585.348 456.341)" stroke="#0E5F7C" stroke-width="3"/>
<circle cx="585.82" cy="456.461" r="234.712" transform="rotate(-105 585.82 456.461)" stroke="#0E5F7C" stroke-width="3"/>
<circle cx="585.82" cy="456.461" r="193.177" transform="rotate(-105 585.82 456.461)" fill="#012638"/>
<path d="M517.827 204.349C378.655 241.64 296.064 384.691 333.355 523.863M837.34 388.82C853.264 448.247 847.329 508.381 824.464 560.686C793.782 630.875 732.614 686.966 652.869 708.334C582.377 727.222 510.889 715.354 452.654 680.956" stroke="#0E5F7C"/>
<path d="M348.376 192.275C201.645 322.935 188.616 547.805 319.275 694.536M850.637 221.376C906.429 284.031 936.023 360.933 940.194 438.664C945.792 542.971 905.613 648.77 821.536 723.638C747.215 789.818 652.846 819.135 560.828 812.885" stroke="#0E5F7C"/>
<rect x="546.429" y="813.558" width="8.39431" height="8.39431" transform="rotate(-105 546.429 813.558)" fill="#012638"/>
<rect x="336.477" y="538.129" width="8.39431" height="8.39431" transform="rotate(-105 336.477 538.129)" fill="#2C9DB1"/>
<rect x="325.053" y="706.309" width="8.39431" height="8.39431" transform="rotate(-105 325.053 706.309)" fill="white"/>
</svg>
