<svg width="90" height="90" viewBox="0 0 90 90" fill="none" xmlns="http://www.w3.org/2000/svg">
<path d="M13.75 86.6666V65.8332M13.75 24.1666V3.33325M3.33334 13.7499H24.1667M3.33334 76.2499H24.1667M49.1667 7.49992L41.9409 26.2868C40.7659 29.342 40.1784 30.8695 39.2647 32.1544C38.455 33.2932 37.46 34.2882 36.3212 35.098C35.0363 36.0116 33.5087 36.5991 30.4536 37.7742L11.6667 44.9999L30.4536 52.2257C33.5087 53.4007 35.0363 53.9882 36.3212 54.9019C37.46 55.7116 38.455 56.7066 39.2647 57.8454C40.1784 59.1303 40.7659 60.6579 41.9409 63.713L49.1667 82.4999L56.3924 63.713C57.5675 60.6579 58.155 59.1303 59.0686 57.8454C59.8784 56.7066 60.8734 55.7116 62.0122 54.9019C63.2971 53.9882 64.8246 53.4007 67.8798 52.2257L86.6667 44.9999L67.8797 37.7742C64.8246 36.5991 63.2971 36.0116 62.0122 35.098C60.8734 34.2882 59.8784 33.2932 59.0686 32.1544C58.155 30.8695 57.5675 29.342 56.3924 26.2868L49.1667 7.49992Z" stroke="white" stroke-width="5" stroke-linecap="round" stroke-linejoin="round"/>
</svg>
