<svg width="48" height="48" viewBox="0 0 48 48" fill="none" xmlns="http://www.w3.org/2000/svg">
<path d="M6 15.6C6 12.2397 6 10.5595 6.65396 9.27606C7.2292 8.14708 8.14708 7.2292 9.27606 6.65396C10.5595 6 12.2397 6 15.6 6H32.4C35.7603 6 37.4405 6 38.7239 6.65396C39.8529 7.2292 40.7708 8.14708 41.346 9.27606C42 10.5595 42 12.2397 42 15.6V26.4C42 29.7603 42 31.4405 41.346 32.7239C40.7708 33.8529 39.8529 34.7708 38.7239 35.346C37.4405 36 35.7603 36 32.4 36H27.3675C26.1194 36 25.4953 36 24.8984 36.1225C24.3689 36.2312 23.8564 36.411 23.375 36.6569C22.8323 36.9341 22.345 37.324 21.3704 38.1037L16.5995 41.9204C15.7673 42.5861 15.3513 42.919 15.0011 42.9194C14.6965 42.9197 14.4084 42.7812 14.2185 42.5432C14 42.2696 14 41.7367 14 40.671V36C12.1401 36 11.2101 36 10.4471 35.7956C8.37653 35.2408 6.75925 33.6235 6.20445 31.5529C6 30.7899 6 29.8599 6 28V15.6Z" stroke="white" stroke-width="3" stroke-linecap="round" stroke-linejoin="round"/>
<path fill-rule="evenodd" clip-rule="evenodd" d="M23.9938 15.3985C22.1944 13.3208 19.1938 12.7619 16.9392 14.6645C14.6847 16.567 14.3673 19.748 16.1378 21.9981C17.2347 23.3922 19.9878 25.9383 21.9239 27.6739C22.6351 28.3115 22.9907 28.6302 23.4175 28.7587C23.7835 28.8688 24.2041 28.8688 24.5702 28.7587C24.997 28.6302 25.3526 28.3115 26.0638 27.6739C27.9999 25.9383 30.753 23.3922 31.8499 21.9981C33.6204 19.748 33.3417 16.547 31.0484 14.6645C28.7551 12.7819 25.7933 13.3208 23.9938 15.3985Z" stroke="white" stroke-width="3" stroke-linecap="round" stroke-linejoin="round"/>
</svg>
