<svg width="48" height="48" viewBox="0 0 48 48" fill="none" xmlns="http://www.w3.org/2000/svg">
<path d="M24 30L18 24M24 30C26.7937 28.9375 29.4738 27.5975 32 26M24 30V40C24 40 30.06 38.9 32 36C34.16 32.76 32 26 32 26M18 24C19.0643 21.2389 20.4044 18.5921 22 16.1C24.3304 12.374 27.5752 9.30611 31.426 7.18819C35.2768 5.07028 39.6053 3.97275 44 4.00001C44 9.44001 42.44 19 32 26M18 24H8C8 24 9.1 17.94 12 16C15.24 13.84 22 16 22 16M9 33C6 35.52 5 43 5 43C5 43 12.48 42 15 39C16.42 37.32 16.4 34.74 14.82 33.18C14.0426 32.438 13.0186 32.0093 11.9445 31.9761C10.8703 31.9428 9.82175 32.3075 9 33Z" stroke="white" stroke-width="3" stroke-linecap="round" stroke-linejoin="round"/>
</svg>
